# xmcd
#
# Track frame offsets:
# 150
# 22996
# 53147
# 98782
# 122953
# 152945
# 184557
# 207559
# 244506
# 272949
# 290918
# 303181
# 309033
# 319497
# 344203
#
# Disc length: 4767 seconds
#
# Revision: 0
# Processed by: cddbd v1.4PL0 Copyright (c) Steve Scherf et al.
# Submitted via: Axialis_AX_CDPlayer 2.6
#
DISCID=e2129d0f
DTITLE=Wolfgang Scholtz - Still Rolling (1976 - 1996)
DYEAR=1900
DGENRE=
TTITLE0=Murphy - Irish Waltz
TTITLE1=Murphy - Living for my queen
TTITLE2=Little Mistake - I don't care
TTITLE3=Little Mistake - Rock jam
TTITLE4=Little Mistake - Bareback rider
TTITLE5=Little Mistake - Intro- One way out
TTITLE6=Session Band - Medley
TTITLE7=Brauerei Session - Ain't no sunshine
TTITLE8=Session - Waiting blues
TTITLE9=Session - Blues for Eric
TTITLE10=Session - Deep blue
TTITLE11=Multiplay - Change your place
TTITLE12=Multiplay - Hideaway
TTITLE13=Multiplay - Bock blues
TTITLE14=Solo - Melissa
EXTD=
EXTT0=
EXTT1=
EXTT2=
EXTT3=
EXTT4=
EXTT5=
EXTT6=
EXTT7=
EXTT8=
EXTT9=
EXTT10=
EXTT11=
EXTT12=
EXTT13=
EXTT14=
PLAYORDER=
